<svg width="617" height="621" viewBox="0 0 617 621" fill="none" xmlns="http://www.w3.org/2000/svg"><g opacity=".9" filter="url(#a)"><path d="M436 476c33.689 0 61-25.072 61-56s-27.311-56-61-56-61 25.072-61 56 27.311 56 61 56Z" fill="#EC5865"/><path d="M201 500c55.228 0 100-39.847 100-89s-44.772-89-100-89-100 39.847-100 89 44.772 89 100 89Z" fill="#3169BD"/><path d="M315.852 500.328c53.49 0 96.852-36.114 96.852-80.664 0-44.549-43.362-80.664-96.852-80.664S219 375.115 219 419.664c0 44.55 43.362 80.664 96.852 80.664Z" fill="#6E1398"/><path d="M304 374c88.918 0 161-56.86 161-127s-72.082-127-161-127-161 56.86-161 127 72.082 127 161 127Z" fill="#fff" fill-opacity=".7"/><path d="M402.5 466c25.681 0 46.5-24.848 46.5-55.5S428.181 355 402.5 355 356 379.848 356 410.5s20.819 55.5 46.5 55.5Z" fill="#FF835C"/></g><defs><filter id="a" x="-76" y="-55" width="763" height="712" filterUnits="userSpaceOnUse" color-interpolation-filters="sRGB"><feFlood flood-opacity="0" result="BackgroundImageFix"/><feBlend in="SourceGraphic" in2="BackgroundImageFix" result="shape"/><feGaussianBlur stdDeviation="60" result="effect1_foregroundBlur_619_343"/></filter></defs></svg>