<svg width="540" height="399" viewBox="0 0 540 399" fill="none" xmlns="http://www.w3.org/2000/svg"><g filter="url(#a)"><path d="M387.036 277.788c28.794 0 52.136-21.46 52.136-47.932s-23.342-47.932-52.136-47.932c-28.793 0-52.135 21.46-52.135 47.932s23.342 47.932 52.135 47.932Z" fill="#EC5865"/><path d="M186.185 298.331c47.203 0 85.469-34.106 85.469-76.178 0-42.072-38.266-76.178-85.469-76.178-47.202 0-85.468 34.106-85.468 76.178 0 42.072 38.266 76.178 85.468 76.178Z" fill="#3169BD"/><path d="M284.348 298.611c45.716 0 82.777-30.911 82.777-69.043 0-38.131-37.061-69.042-82.777-69.042-45.717 0-82.778 30.911-82.778 69.042 0 38.132 37.061 69.043 82.778 69.043Z" fill="#6E1398"/><path d="M274 248c91.127 0 165-33.131 165-74s-73.873-74-165-74-165 33.131-165 74 73.873 74 165 74Z" fill="#fff" fill-opacity=".7"/><path d="M358.404 269.229c21.95 0 39.743-21.269 39.743-47.504 0-26.236-17.793-47.505-39.743-47.505-21.949 0-39.743 21.269-39.743 47.505 0 26.235 17.794 47.504 39.743 47.504Z" fill="#FF835C"/></g><defs><filter id="a" x=".717" y="0" width="538.455" height="398.611" filterUnits="userSpaceOnUse" color-interpolation-filters="sRGB"><feFlood flood-opacity="0" result="BackgroundImageFix"/><feBlend in="SourceGraphic" in2="BackgroundImageFix" result="shape"/><feGaussianBlur stdDeviation="50" result="effect1_foregroundBlur_659_1018"/></filter></defs></svg>