<svg width="1451" height="1451" viewBox="0 0 1451 1451" fill="none" xmlns="http://www.w3.org/2000/svg"><path opacity=".05" stroke="#fff" d="M1 1h161v161H1zm0 161h161v161H1zm0 161h161v161H1zm0 161h161v161H1zm0 161h161v161H1zm0 161h161v161H1zm0 161h161v161H1zm0 161h161v161H1zm0 161h161v161H1zM162 1h161v161H162zm0 161h161v161H162zm0 161h161v161H162zm0 161h161v161H162zm0 161h161v161H162zm0 161h161v161H162zm0 161h161v161H162zm0 161h161v161H162zm0 161h161v161H162zM323 1h161v161H323zm0 161h161v161H323zm0 161h161v161H323zm0 161h161v161H323zm0 161h161v161H323zm0 161h161v161H323zm0 161h161v161H323zm0 161h161v161H323zm0 161h161v161H323zM484 1h161v161H484zm0 161h161v161H484zm0 161h161v161H484zm0 161h161v161H484zm0 161h161v161H484zm0 161h161v161H484zm0 161h161v161H484zm0 161h161v161H484zm0 161h161v161H484zM645 1h161v161H645zm0 161h161v161H645zm0 161h161v161H645zm0 161h161v161H645zm0 161h161v161H645zm0 161h161v161H645zm0 161h161v161H645zm0 161h161v161H645zm0 161h161v161H645zM806 1h161v161H806zm0 161h161v161H806zm0 161h161v161H806zm0 161h161v161H806zm0 161h161v161H806zm0 161h161v161H806zm0 161h161v161H806zm0 161h161v161H806zm0 161h161v161H806zM967 1h161v161H967zm0 161h161v161H967zm0 161h161v161H967zm0 161h161v161H967zm0 161h161v161H967zm0 161h161v161H967zm0 161h161v161H967zm0 161h161v161H967zm0 161h161v161H967zM1128 1h161v161h-161zm0 161h161v161h-161zm0 161h161v161h-161zm0 161h161v161h-161zm0 161h161v161h-161zm0 161h161v161h-161zm0 161h161v161h-161zm0 161h161v161h-161zm0 161h161v161h-161zM1289 1h161v161h-161zm0 161h161v161h-161zm0 161h161v161h-161zm0 161h161v161h-161zm0 161h161v161h-161zm0 161h161v161h-161zm0 161h161v161h-161zm0 161h161v161h-161zm0 161h161v161h-161z"/></svg>